<svg width="12" height="13" viewBox="0 0 12 13" fill="none" xmlns="http://www.w3.org/2000/svg">
<path fill-rule="evenodd" clip-rule="evenodd" d="M4.17857 2.18487C4.17857 3.39155 3.24317 4.36975 2.08929 4.36975C0.935405 4.36975 0 3.39155 0 2.18487C0 0.978201 0.935405 0 2.08929 0C3.24317 0 4.17857 0.978201 4.17857 2.18487ZM4.17857 10.0504C4.17857 11.2571 3.24317 12.2353 2.08929 12.2353C0.935405 12.2353 0 11.2571 0 10.0504C0 8.84375 0.935405 7.86555 2.08929 7.86555C3.24317 7.86555 4.17857 8.84375 4.17857 10.0504ZM9.61071 4.36975C10.7646 4.36975 11.7 3.39155 11.7 2.18487C11.7 0.978201 10.7646 0 9.61071 0C8.45683 0 7.52143 0.978201 7.52143 2.18487C7.52143 3.39155 8.45683 4.36975 9.61071 4.36975Z" fill="#F3603C"/>
<ellipse opacity="0.5" cx="9.61077" cy="10.1378" rx="2.08929" ry="2.18487" fill="#F3603C"/>
</svg>
